<svg xmlns="http://www.w3.org/2000/svg" viewBox="0 0 24 24">
  <circle cx="12" cy="12" r="12" fill="#2e8555"/>
  <path fill="white" d="M11.25 5.533A9.707 9.707 0 0 0 6 4a9.735 9.735 0 0 0-3.25.555.75.75 0 0 0-.5.707v12.25a.75.75 0 0 0 1 .707A8.237 8.237 0 0 1 6 17.75c1.995 0 3.823.707 5.25 1.886V5.533z"/>
  <path fill="white" d="M12.75 19.636A8.214 8.214 0 0 1 18 17.75c.966 0 1.89.166 2.75.47a.75.75 0 0 0 1-.708V5.262a.75.75 0 0 0-.5-.707A9.735 9.735 0 0 0 18 4a9.707 9.707 0 0 0-5.25 1.533v14.103z"/>
</svg>
